# xmcd
#
# Track frame offsets: 
#        150
#        8899
#        39521
#        68388
#        107481
#        136822
#        157441
#        189151
#        221111
#        238108
#        257807
#        281520
#
# Disc length: 4188 seconds
#
# Revision: 0
# Processed by: cddbd v1.5.2PL0 Copyright (c) Steve Scherf et al.
# Submitted via: ExactAudioCopy v0.95b4
#
DISCID=a6105a0c
DTITLE=Eric Clapton - Blues Eyes, Osaka Jo Hall, Osaka, Japan, Novembe
DTITLE=r 15th 1999 - CD1
DYEAR=1999
DGENRE=Blues
TTITLE0=Intro
TTITLE1=My Father's Eyes
TTITLE2=Pilgrim
TTITLE3=River Of Tears
TTITLE4=Going Down Slow
TTITLE5=Hoochie Coochie Man
TTITLE6=Have You Ever Loved A Woman
TTITLE7=She's Gone
TTITLE8=Rambling On My Mind
TTITLE9=Tears In Heaven
TTITLE10=Bell Bottom Blues
TTITLE11=Change The World
EXTD=
EXTT0=
EXTT1=
EXTT2=
EXTT3=
EXTT4=
EXTT5=
EXTT6=
EXTT7=
EXTT8=
EXTT9=
EXTT10=
EXTT11=
PLAYORDER=
